<svg xmlns="http://www.w3.org/2000/svg" xmlns:xlink="http://www.w3.org/1999/xlink" width="500" zoomAndPan="magnify" viewBox="0 0 375 374.999991" height="500" preserveAspectRatio="xMidYMid meet" version="1.0"><defs><g/><clipPath id="f6adbc217b"><path d="M 56.488281 151.464844 L 318.167969 151.464844 L 318.167969 223.464844 L 56.488281 223.464844 Z M 56.488281 151.464844 " clip-rule="nonzero"/></clipPath><clipPath id="10f6c04744"><path d="M 63.558594 158.238281 L 187.332031 158.238281 L 187.332031 216.761719 L 63.558594 216.761719 Z M 63.558594 158.238281 " clip-rule="nonzero"/></clipPath></defs><g clip-path="url(#f6adbc217b)"><path stroke-linecap="butt" transform="matrix(0.75, 0, 0, 0.75, 56.489269, 151.465449)" fill="none" stroke-linejoin="miter" d="M -0.00131672 -0.000807338 L 348.904956 -0.000807338 L 348.904956 96.092949 L -0.00131672 96.092949 Z M -0.00131672 -0.000807338 " stroke="#000000" stroke-width="6" stroke-opacity="1" stroke-miterlimit="4"/></g><g clip-path="url(#10f6c04744)"><path fill="#000000" d="M 63.558594 158.238281 L 187.238281 158.238281 L 187.238281 216.761719 L 63.558594 216.761719 Z M 63.558594 158.238281 " fill-opacity="1" fill-rule="nonzero"/></g><g fill="#ffffff" fill-opacity="1"><g transform="translate(71.859044, 195.437843)"><g><path d="M 8.125 0 L 8.125 -18.484375 L 1.015625 -18.484375 L 1.015625 -21 L 17.84375 -21 L 17.84375 -18.484375 L 10.765625 -18.484375 L 10.765625 0 Z M 8.125 0 "/></g></g></g><g fill="#ffffff" fill-opacity="1"><g transform="translate(93.03903, 195.437843)"><g><path d="M 16.828125 0 L 16.828125 -9.453125 L 5.703125 -9.453125 L 5.703125 0 L 3.0625 0 L 3.0625 -21 L 5.703125 -21 L 5.703125 -11.96875 L 16.828125 -11.96875 L 16.828125 -21 L 19.46875 -21 L 19.46875 0 Z M 16.828125 0 "/></g></g></g><g fill="#ffffff" fill-opacity="1"><g transform="translate(117.849013, 195.437843)"><g><path d="M 3.0625 0 L 3.0625 -21 L 11.0625 -21 C 12.53125 -21 13.800781 -20.722656 14.875 -20.171875 C 15.957031 -19.617188 16.796875 -18.84375 17.390625 -17.84375 C 17.992188 -16.84375 18.296875 -15.644531 18.296875 -14.25 C 18.296875 -12.550781 17.851562 -11.144531 16.96875 -10.03125 C 16.09375 -8.925781 14.882812 -8.179688 13.34375 -7.796875 L 18.625 0 L 15.453125 0 L 10.3125 -7.53125 L 5.703125 -7.53125 L 5.703125 0 Z M 5.703125 -10.046875 L 10.765625 -10.046875 C 12.304688 -10.046875 13.492188 -10.410156 14.328125 -11.140625 C 15.171875 -11.867188 15.59375 -12.90625 15.59375 -14.25 C 15.59375 -15.59375 15.171875 -16.632812 14.328125 -17.375 C 13.492188 -18.113281 12.304688 -18.484375 10.765625 -18.484375 L 5.703125 -18.484375 Z M 5.703125 -10.046875 "/></g></g></g><g fill="#ffffff" fill-opacity="1"><g transform="translate(140.558993, 195.437843)"><g><path d="M 3.0625 0 L 3.0625 -21 L 15.8125 -21 L 15.8125 -18.546875 L 5.703125 -18.546875 L 5.703125 -11.90625 L 15.0625 -11.90625 L 15.0625 -9.484375 L 5.703125 -9.484375 L 5.703125 -2.453125 L 16.140625 -2.453125 L 16.140625 0 Z M 3.0625 0 "/></g></g></g><g fill="#ffffff" fill-opacity="1"><g transform="translate(160.928977, 195.437843)"><g><path d="M 3.0625 0 L 3.0625 -21 L 15.8125 -21 L 15.8125 -18.546875 L 5.703125 -18.546875 L 5.703125 -11.90625 L 15.0625 -11.90625 L 15.0625 -9.484375 L 5.703125 -9.484375 L 5.703125 -2.453125 L 16.140625 -2.453125 L 16.140625 0 Z M 3.0625 0 "/></g></g></g><g fill="#000000" fill-opacity="1"><g transform="translate(213.94858, 197.312843)"><g><path d="M 8.4375 0 L 8.4375 -17.953125 L 0.984375 -17.953125 L 0.984375 -24.5 L 22.921875 -24.5 L 22.921875 -17.953125 L 15.46875 -17.953125 L 15.46875 0 Z M 8.4375 0 "/></g></g></g><g fill="#000000" fill-opacity="1"><g transform="translate(237.848179, 197.312843)"><g><path d="M 2.59375 0 L 2.59375 -24.5 L 19.390625 -24.5 L 19.390625 -18.796875 L 9.59375 -18.796875 L 9.59375 -15.21875 L 18.4375 -15.21875 L 18.4375 -9.5625 L 9.59375 -9.5625 L 9.59375 -5.78125 L 19.78125 -5.78125 L 19.78125 0 Z M 2.59375 0 "/></g></g></g><g fill="#000000" fill-opacity="1"><g transform="translate(259.193355, 197.312843)"><g><path d="M 2.59375 0 L 2.59375 -24.5 L 19.390625 -24.5 L 19.390625 -18.796875 L 9.59375 -18.796875 L 9.59375 -15.21875 L 18.4375 -15.21875 L 18.4375 -9.5625 L 9.59375 -9.5625 L 9.59375 -5.78125 L 19.78125 -5.78125 L 19.78125 0 Z M 2.59375 0 "/></g></g></g></svg>